<?xml version="1.0" encoding="UTF-8" standalone="no"?>
<!-- Created with Inkscape (http://www.inkscape.org/) -->
<svg
   xmlns:dc="http://purl.org/dc/elements/1.1/"
   xmlns:cc="http://web.resource.org/cc/"
   xmlns:rdf="http://www.w3.org/1999/02/22-rdf-syntax-ns#"
   xmlns:svg="http://www.w3.org/2000/svg"
   xmlns="http://www.w3.org/2000/svg"
   xmlns:xlink="http://www.w3.org/1999/xlink"
   xmlns:sodipodi="http://sodipodi.sourceforge.net/DTD/sodipodi-0.dtd"
   xmlns:inkscape="http://www.inkscape.org/namespaces/inkscape"
   width="500"
   height="500"
   id="svg2"
   sodipodi:version="0.32"
   inkscape:version="0.45.1"
   version="1.0"
   sodipodi:docbase="F:\Des!"
   sodipodi:docname="صانع النقوش 4 مجاميع 1.svg"
   inkscape:output_extension="org.inkscape.output.svg.inkscape"
   inkscape:export-filename="F:\Des!\صانع النقوش 4 مجاميع.png"
   inkscape:export-xdpi="200"
   inkscape:export-ydpi="200">
  <defs
     id="defs4">
    <linearGradient
       inkscape:collect="always"
       id="linearGradient3305">
      <stop
         style="stop-color:#003566;stop-opacity:1;"
         offset="0"
         id="stop3307" />
      <stop
         style="stop-color:#003566;stop-opacity:0;"
         offset="1"
         id="stop3309" />
    </linearGradient>
    <linearGradient
       id="linearGradient3209">
      <stop
         style="stop-color:#49451d;stop-opacity:1;"
         offset="0"
         id="stop3211" />
      <stop
         id="stop3221"
         offset="0.5"
         style="stop-color:#441d49;stop-opacity:1;" />
      <stop
         style="stop-color:#344631;stop-opacity:0.24705882;"
         offset="0.75"
         id="stop3223" />
      <stop
         style="stop-color:#49451d;stop-opacity:1;"
         offset="1"
         id="stop3213" />
    </linearGradient>
    <linearGradient
       inkscape:collect="always"
       xlink:href="#linearGradient3305"
       id="linearGradient3311"
       x1="75"
       y1="162.5"
       x2="250"
       y2="162.5"
       gradientUnits="userSpaceOnUse" />
    <linearGradient
       inkscape:collect="always"
       xlink:href="#linearGradient3209"
       id="linearGradient5316"
       x1="-15.846683"
       y1="282.79178"
       x2="87.720634"
       y2="198.34732"
       gradientUnits="userSpaceOnUse" />
  </defs>
  <sodipodi:namedview
     id="base"
     pagecolor="#ffffff"
     bordercolor="#666666"
     borderopacity="1.0"
     gridtolerance="2.6"
     guidetolerance="1.5"
     objecttolerance="2"
     inkscape:pageopacity="0.0"
     inkscape:pageshadow="2"
     inkscape:zoom="0.99473662"
     inkscape:cx="124.54483"
     inkscape:cy="252.61877"
     inkscape:document-units="px"
     inkscape:current-layer="layer4"
     showgrid="false"
     width="500px"
     height="500px"
     inkscape:object-bbox="true"
     inkscape:object-points="false"
     inkscape:object-nodes="true"
     inkscape:grid-points="false"
     inkscape:guide-points="false"
     gridoriginy="0px"
     gridspacingx="25px"
     gridspacingy="25px"
     inkscape:window-width="1024"
     inkscape:window-height="712"
     inkscape:window-x="-4"
     inkscape:window-y="-4"
     inkscape:object-paths="false" />
  <metadata
     id="metadata7">
    <rdf:RDF>
      <cc:Work
         rdf:about="">
        <dc:format>image/svg+xml</dc:format>
        <dc:type
           rdf:resource="http://purl.org/dc/dcmitype/StillImage" />
      </cc:Work>
    </rdf:RDF>
  </metadata>
  <g
     inkscape:groupmode="layer"
     id="layer3"
     inkscape:label="Explain"
     style="opacity:1"
     sodipodi:insensitive="true">
    <g
       style="display:inline"
       id="g4332"
       transform="translate(50,0)">
      <path
         id="path4302"
         d="M -150,-25 L -175,0 L -125,50 L -150,75 L -50,75 L -150,-25 z "
         style="fill:#64e117;fill-opacity:1;fill-rule:evenodd;stroke:none;stroke-width:1px;stroke-linecap:butt;stroke-linejoin:miter;stroke-opacity:1"
         sodipodi:nodetypes="cccccc" />
      <flowRoot
         transform="matrix(0.7071068,0.7071068,-0.7071068,0.7071068,64.661312,14.811493)"
         style="font-weight:bold;text-align:center;text-anchor:middle;font-family:Tahoma"
         id="flowRoot4308"
         xml:space="preserve"><flowRegion
           id="flowRegion4310"><rect
             style="font-weight:bold;text-align:center;text-anchor:middle;font-family:Tahoma"
             y="128.84209"
             x="-184.36603"
             height="73.988998"
             width="126.14517"
             id="rect4312" /></flowRegion><flowPara
           style="font-size:18px"
           id="flowPara4314">عدل من هنا</flowPara></flowRoot>    </g>
    <flowRoot
       xml:space="preserve"
       id="flowRoot4316"
       style="font-style:normal;font-weight:normal;text-align:justify;text-anchor:start;display:inline"
       transform="translate(10,0)"><flowRegion
         id="flowRegion4318"><rect
           id="rect4320"
           width="226.29851"
           height="122.23056"
           x="-251.29851"
           y="127.76944"
           style="font-style:normal;font-weight:normal;text-align:justify;text-anchor:start" /></flowRegion><flowPara
         id="flowPara4322">إضغط مرتين على الجزء المؤشر ثم عدل على الكائنات داخله كل على حدة لترى أن كل كائن يستنسخ نفسه تلقائيا مكونا نقشا.</flowPara><flowPara
         id="flowPara4324">أي إستفسار:</flowPara><flowPara
         id="flowPara4326">www.omardo.com</flowPara><flowPara
         id="flowPara4328">أو أدخل على الموضوع المخصص مباشرة من الرابط:</flowPara><flowPara
         id="flowPara4330"
         style="fill:#0000ff">www.omardo.com/blog/archieve/50</flowPara></flowRoot>  </g>
  <g
     inkscape:groupmode="layer"
     id="layer4"
     inkscape:label="Explain unlocked">
    <flowRoot
       xml:space="preserve"
       id="flowRoot2258"
       style="font-style:normal;font-weight:normal;text-align:justify;text-anchor:start;display:inline"
       transform="translate(10,0)"><flowRegion
         id="flowRegion2260"><rect
           id="rect2262"
           width="226.29851"
           height="122.23056"
           x="-251.29851"
           y="127.76944"
           style="font-style:normal;font-weight:normal;text-align:justify;text-anchor:start" /></flowRegion><flowPara
         id="flowPara2264">إضغط مرتين على الجزء المؤشر ثم عدل على الكائنات داخله كل على حدة لترى أن كل كائن يستنسخ نفسه تلقائيا مكونا نقشا.</flowPara><flowPara
         id="flowPara2266">أي إستفسار:</flowPara><flowPara
         id="flowPara2268">www.omardo.com</flowPara><flowPara
         id="flowPara2270">أو أدخل على الموضوع المخصص مباشرة من الرابط:</flowPara><flowPara
         id="flowPara2272"
         style="fill:#0000ff">www.omardo.com/blog/archieve/50</flowPara></flowRoot>  </g>
  <g
     inkscape:groupmode="layer"
     id="layer2"
     inkscape:label="Mirror"
     style="display:inline"
     sodipodi:insensitive="true">
    <use
       x="0"
       y="0"
       xlink:href="#g3179"
       id="use3183"
       transform="matrix(0,1,1,0,0,0)"
       width="500"
       height="500" />
    <use
       x="0"
       y="0"
       xlink:href="#g3179"
       id="use3185"
       transform="matrix(0,1,-1,0,500,0)"
       width="500"
       height="500" />
    <use
       x="0"
       y="0"
       xlink:href="#g3179"
       id="use3187"
       transform="matrix(-1,0,0,-1,500,500)"
       width="500"
       height="500" />
    <use
       x="0"
       y="0"
       xlink:href="#g3179"
       id="use3189"
       transform="matrix(0,-1,1,0,0,500)"
       width="500"
       height="500" />
    <use
       x="0"
       y="0"
       xlink:href="#g3179"
       id="use3191"
       transform="matrix(1,0,0,-1,0,500)"
       width="500"
       height="500" />
    <use
       x="0"
       y="0"
       xlink:href="#g3179"
       id="use3193"
       transform="matrix(0,-1,-1,0,500,500)"
       width="500"
       height="500" />
    <use
       x="0"
       y="0"
       xlink:href="#g3179"
       id="use3195"
       transform="matrix(-1,0,0,1,500,0)"
       width="500"
       height="500" />
  </g>
  <g
     inkscape:label="Edit area"
     inkscape:groupmode="layer"
     id="layer1"
     style="display:inline">
    <g
       id="g5477">
      <path
         sodipodi:type="arc"
         style="opacity:1;fill:#2fc875;fill-opacity:1;fill-rule:nonzero;stroke:none;stroke-width:2.29999995;stroke-miterlimit:4;stroke-dasharray:none;stroke-dashoffset:1.5;stroke-opacity:1"
         id="path5487"
         sodipodi:cx="-50"
         sodipodi:cy="362.5"
         sodipodi:rx="0"
         sodipodi:ry="12.5"
         d="M -50,369.40498 A 0,12.5 0 1 1 -50,358.27069 L -50,362.5 z"
         sodipodi:start="0.58523873"
         sodipodi:end="5.9380281" />
    </g>
    <g
       id="g3179">
      <path
         id="path2203"
         d="M 75,75 C 75,100 100,125 100,125 L 125,125 C 125,125 150,250 175,225 C 200,200 250,250 250,250 L 75,75 z "
         style="opacity:1;fill:url(#linearGradient3311);fill-opacity:1;fill-rule:evenodd;stroke:none;stroke-width:1px;stroke-linecap:butt;stroke-linejoin:miter;stroke-opacity:1" />
      <path
         transform="matrix(1.3545605,0,0,2.5813085,-44.08898,-387.84971)"
         style="fill:#d393d4;fill-opacity:1;fill-rule:nonzero;stroke:none;stroke-width:2.29999995;stroke-miterlimit:4;stroke-dashoffset:1.5;stroke-opacity:1"
         d="M 51.004722,159.93815 C 69.460892,159.93815 66.987765,161.14468 75.44461,166.45559 C 83.894829,171.95948 91.298089,178.67382 97.729685,186.40318 C 102.73278,192.37568 106.42452,199.13198 109.29174,206.33262 C 111.09994,210.6398 111.58779,215.22735 111.96152,219.8253 C 112.06192,222.69778 111.51206,225.5135 110.86672,228.29155 C 109.77596,231.03241 110.17383,232.76504 111.40341,235.2362 C 114.44624,238.75539 118.34863,241.26473 122.41789,243.42862 C 123.06135,243.71233 123.70481,243.99605 124.34827,244.27977 L 115.65864,245.27137 C 115.0324,244.96572 114.40616,244.66008 113.77992,244.35443 C 109.66615,242.01276 105.64682,239.41432 102.57496,235.74828 C 100.93489,233.18114 100.9071,230.91323 101.90273,228.05146 C 102.57559,225.3714 103.17646,222.65606 103.14726,219.87232 C 102.8773,215.37752 102.45943,210.89778 100.82955,206.64538 C 98.149681,199.51916 94.498183,192.85945 89.631767,186.96669 C 83.23479,179.30195 75.942494,172.52772 67.391291,167.28282 C 61.306133,163.68543 67.391291,167.28282 51.004721,159.93815 L 51.004722,159.93815 z "
         id="path3197"
         sodipodi:nodetypes="ccccccccccccccccccc" />
      <path
         style="fill:url(#linearGradient5316);fill-opacity:1;fill-rule:nonzero;stroke:none;stroke-width:1px;stroke-linecap:butt;stroke-linejoin:miter;stroke-opacity:1"
         d="M 7.3087868,225.12767 C -0.36492726,170.718 36.289798,249.87594 57.308787,191.18428 C 71.885,150.48289 75,217.19261 82.308787,157.2409 C 86.332997,124.23156 87.720635,210.84866 87.720635,244.30715 C 87.720635,255.6216 65.64212,225.12767 57.308787,225.12767 C 40.64212,225.12767 23.975454,225.12767 7.3087868,225.12767 z "
         id="path4294"
         sodipodi:nodetypes="cssssc" />
    </g>
    <text
       xml:space="preserve"
       style="font-size:10px;font-style:normal;font-variant:normal;font-weight:normal;font-stretch:normal;text-align:start;line-height:125%;writing-mode:lr-tb;text-anchor:start;fill:#000000;fill-opacity:1;stroke:none;stroke-width:1px;stroke-linecap:butt;stroke-linejoin:miter;stroke-opacity:1;font-family:Book Antiqua"
       x="-72.776062"
       y="144.61023"
       id="text4304"
       sodipodi:linespacing="125%"><tspan
         sodipodi:role="line"
         id="tspan4306"
         x="-72.776062"
         y="144.61023">عدل من هنا</tspan></text>
  </g>
</svg>
